<svg width="34" height="29" viewBox="0 0 34 29" fill="none" xmlns="http://www.w3.org/2000/svg">
<path d="M2.70227 19.8291C2.10198 19.8291 1.57672 19.6007 1.1265 19.1438C0.676282 18.687 0.451172 18.154 0.451172 17.5449V2.31648C0.451172 1.70735 0.676282 1.17435 1.1265 0.717503C1.57672 0.260652 2.10198 0.0322266 2.70227 0.0322266H31.2162C31.8165 0.0322266 32.3418 0.260652 32.792 0.717503C33.2422 1.17435 33.4673 1.70735 33.4673 2.31648V17.5449C33.4673 18.154 33.2422 18.687 32.792 19.1438C32.3418 19.6007 31.8165 19.8291 31.2162 19.8291H2.70227ZM2.70227 17.5449H31.2162V2.31648H2.70227V17.5449ZM3.5652 25.159L3.45264 22.8748L30.4283 21.4281L30.5409 23.7123L3.5652 25.159ZM3.45264 28.9281V26.6438H30.4659V28.9281H3.45264ZM2.70227 17.5449V2.31648V17.5449ZM14.7081 14.1185C16.5591 14.1185 18.2974 13.7885 19.9232 13.1286C21.549 12.4687 22.9622 11.5296 24.1628 10.3114C24.2878 11.1997 24.7443 11.9104 25.5322 12.4433C26.3201 12.9763 27.2143 13.2809 28.2148 13.3571V6.50428C27.1893 6.58043 26.2763 6.89134 25.4759 7.43702C24.6755 7.98271 24.2253 8.69971 24.1253 9.58803C22.8246 8.29362 21.3864 7.32915 19.8106 6.69464C18.2349 6.06012 16.534 5.74287 14.7081 5.74287C12.6822 5.74287 10.8 6.12358 9.06164 6.88499C7.32328 7.64641 5.97888 8.66164 5.02841 9.93067C5.97888 11.1997 7.32328 12.2149 9.06164 12.9763C10.8 13.7378 12.6822 14.1185 14.7081 14.1185Z" fill="#01A7D9"/>
</svg>
