<svg width="23" height="11" viewBox="0 0 23 11" fill="none" xmlns="http://www.w3.org/2000/svg">
<path d="M14.4903 8.93636C13.0178 9.64545 11.4434 10 9.76699 10C7.93204 10 6.22735 9.59091 4.65291 8.77273C3.07848 7.95454 1.86084 6.86364 1 5.5C1.86084 4.13636 3.07848 3.04545 4.65291 2.22727C6.22735 1.40909 7.93204 1 9.76699 1C11.4207 1 12.9612 1.34091 14.3883 2.02273C15.8155 2.70455 17.1181 3.74091 18.2961 5.13182C18.3867 4.17727 18.7945 3.40682 19.5194 2.82045C20.2443 2.23409 21.0712 1.9 22 1.81818V9.18182C21.0939 9.1 20.284 8.77273 19.5704 8.2C18.8568 7.62727 18.4434 6.86364 18.3301 5.90909C17.2427 7.21818 15.9628 8.22727 14.4903 8.93636Z" stroke="#01A7D9" stroke-width="2" stroke-linejoin="round"/>
</svg>
