<svg width="33" height="36" viewBox="0 0 33 36" fill="none" xmlns="http://www.w3.org/2000/svg">
<path d="M3.90247 20.2747C3.63603 20.2747 3.44952 20.1667 3.34295 19.9507C3.23637 19.7347 3.2497 19.5322 3.38291 19.3432L13.694 4.1554C13.8539 3.9124 14.0737 3.8314 14.3534 3.9124C14.6332 3.9934 14.7731 4.1824 14.7731 4.47941V19.6672C14.7731 19.8292 14.7131 19.9709 14.5932 20.0924C14.4733 20.214 14.3335 20.2747 14.1736 20.2747H3.90247ZM7.3395 17.8447H12.3752V10.271L7.3395 17.8447ZM18.37 19.5052C18.7963 17.9932 19.1027 16.4879 19.2892 14.9894C19.4757 13.4908 19.5689 11.8775 19.5689 10.1495C19.5689 8.71849 19.4957 7.32121 19.3491 5.95768C19.2026 4.59416 18.9695 3.26438 18.6497 1.96836C18.5165 1.42835 18.5632 1.05709 18.7896 0.85459C19.0161 0.652086 19.3558 0.699337 19.8087 0.996342C20.9811 1.72536 22.18 2.71762 23.4056 3.97315C24.6312 5.22867 25.7636 6.66645 26.8027 8.28648C27.8418 9.90651 28.7211 11.6683 29.4404 13.5718C30.1598 15.4754 30.5861 17.4396 30.7193 19.4647C30.746 19.6807 30.6794 19.8697 30.5195 20.0317C30.3596 20.1937 30.1731 20.2747 29.96 20.2747H18.9295C18.7164 20.2747 18.5565 20.2005 18.4499 20.0519C18.3433 19.9034 18.3167 19.7212 18.37 19.5052ZM21.1276 17.8447H28.1216C27.6686 15.4956 26.836 13.2276 25.6237 11.0405C24.4114 8.85349 23.0859 7.04446 21.6472 5.61343C21.7804 6.42344 21.867 7.21996 21.9069 8.00297C21.9469 8.78599 21.9669 9.5015 21.9669 10.1495C21.9669 11.3915 21.8803 12.7281 21.7071 14.1591C21.5339 15.5901 21.3408 16.8186 21.1276 17.8447ZM15.5724 27.8888C15.0395 28.3479 14.4667 28.7056 13.8539 28.9621C13.2411 29.2186 12.6149 29.3469 11.9755 29.3469C11.3361 29.3469 10.7099 29.2186 10.0971 28.9621C9.48432 28.7056 8.91148 28.3479 8.3786 27.8888C8.00559 27.5918 7.59262 27.4366 7.13967 27.4231C6.68673 27.4096 6.27375 27.5378 5.90074 27.8078C5.63431 27.9968 5.36787 28.1588 5.10143 28.2939C4.83499 28.4289 4.58188 28.5504 4.34209 28.6584C3.78257 28.2803 3.23637 27.7876 2.7035 27.1801C2.17063 26.5726 1.73101 25.8908 1.38464 25.1348C1.19813 24.7298 1.22478 24.3585 1.46457 24.021C1.70436 23.6835 2.06405 23.5148 2.54364 23.5148H30.9991C31.4787 23.5148 31.8384 23.6835 32.0782 24.021C32.3179 24.3585 32.3446 24.7298 32.1581 25.1348C31.8117 25.8908 31.3721 26.5726 30.8392 27.1801C30.3063 27.7876 29.7602 28.2803 29.2006 28.6584C28.9608 28.5504 28.7077 28.4289 28.4413 28.2939C28.1749 28.1588 27.9084 27.9968 27.642 27.8078C27.269 27.5378 26.856 27.4096 26.4031 27.4231C25.9501 27.4366 25.5371 27.5918 25.1641 27.8888C24.6312 28.3479 24.0584 28.7056 23.4456 28.9621C22.8328 29.2186 22.2067 29.3469 21.5672 29.3469C20.9278 29.3469 20.3016 29.2186 19.6888 28.9621C19.076 28.7056 18.5032 28.3479 17.9703 27.8888C17.5973 27.5918 17.1977 27.4433 16.7714 27.4433C16.3451 27.4433 15.9454 27.5918 15.5724 27.8888ZM2.38378 35.665C3.15644 35.665 3.94909 35.5502 4.76173 35.3207C5.57436 35.0912 6.38033 34.666 7.17964 34.045C7.97895 34.666 8.78492 35.0912 9.59755 35.3207C10.4102 35.5502 11.2028 35.665 11.9755 35.665C12.7482 35.665 13.5408 35.5502 14.3534 35.3207C15.1661 35.0912 15.9721 34.666 16.7714 34.045C17.5707 34.666 18.3766 35.0912 19.1893 35.3207C20.0019 35.5502 20.7946 35.665 21.5672 35.665C22.3399 35.665 23.1325 35.5502 23.9452 35.3207C24.7578 35.0912 25.5638 34.666 26.3631 34.045C27.1624 34.666 27.9684 35.0912 28.781 35.3207C29.5936 35.5502 30.3863 35.665 31.1589 35.665H31.5586C31.905 35.665 32.1914 35.5502 32.4179 35.3207C32.6443 35.0912 32.7576 34.801 32.7576 34.45C32.7576 34.099 32.6443 33.8087 32.4179 33.5792C32.1914 33.3497 31.905 33.2349 31.5586 33.2349H31.1589C30.4929 33.2349 29.8201 33.1337 29.1407 32.9312C28.4613 32.7287 27.8018 32.3979 27.1624 31.9389C26.9492 31.7769 26.6828 31.6959 26.3631 31.6959C26.0434 31.6959 25.7769 31.7769 25.5638 31.9389C24.9243 32.3979 24.2649 32.7287 23.5855 32.9312C22.9061 33.1337 22.2333 33.2349 21.5672 33.2349C20.8745 33.2349 20.1951 33.1404 19.529 32.9514C18.8629 32.7624 18.2101 32.4249 17.5707 31.9389C17.3575 31.7769 17.0977 31.6959 16.7913 31.6959C16.4849 31.6959 16.2118 31.7769 15.9721 31.9389C15.3326 32.3979 14.6732 32.7287 13.9938 32.9312C13.3143 33.1337 12.6416 33.2349 11.9755 33.2349C11.2828 33.2349 10.6034 33.1404 9.93726 32.9514C9.27117 32.7624 8.6184 32.4249 7.97895 31.9389C7.7658 31.7499 7.49936 31.6554 7.17964 31.6554C6.85991 31.6554 6.59348 31.7499 6.38033 31.9389C5.74088 32.4249 5.08811 32.7624 4.42202 32.9514C3.75593 33.1404 3.07651 33.2349 2.38378 33.2349H1.98412C1.63775 33.2349 1.35133 33.3497 1.12486 33.5792C0.898392 33.8087 0.785156 34.099 0.785156 34.45C0.785156 34.801 0.898392 35.0912 1.12486 35.3207C1.35133 35.5502 1.63775 35.665 1.98412 35.665H2.38378Z" fill="#01A7D9"/>
</svg>
