<svg width="56" height="56" viewBox="0 0 56 56" fill="none" xmlns="http://www.w3.org/2000/svg">
<path d="M55.5 9.245L24.1225 40.65L12.4625 28.99L16.34 25.1125L24.1225 32.895L51.6225 5.395L55.5 9.245ZM49.4225 23.105C49.78 24.6725 50 26.3225 50 28C50 40.155 40.155 50 28 50C15.845 50 6 40.155 6 28C6 15.845 15.845 6 28 6C32.345 6 36.36 7.265 39.77 9.4375L43.73 5.4775C39.275 2.3425 33.8575 0.5 28 0.5C12.82 0.5 0.5 12.82 0.5 28C0.5 43.18 12.82 55.5 28 55.5C43.18 55.5 55.5 43.18 55.5 28C55.5 24.7275 54.895 21.5925 53.85 18.6775L49.4225 23.105Z" fill="#01A7D9"/>
</svg>
